<?xml version="1.0" encoding="UTF-8" standalone="no"?>
<!-- Created with Inkscape (http://www.inkscape.org/) -->

<svg
   width="1200"
   height="600"
   viewBox="0 0 317.5 158.75"
   version="1.1"
   id="svg6993"
   sodipodi:docname="checkers.svg"
   inkscape:export-filename="checkers.png"
   inkscape:export-xdpi="96"
   inkscape:export-ydpi="96"
   inkscape:version="1.3.2 (091e20e, 2023-11-25, custom)"
   xmlns:inkscape="http://www.inkscape.org/namespaces/inkscape"
   xmlns:sodipodi="http://sodipodi.sourceforge.net/DTD/sodipodi-0.dtd"
   xmlns="http://www.w3.org/2000/svg"
   xmlns:svg="http://www.w3.org/2000/svg">
  <sodipodi:namedview
     id="namedview1"
     pagecolor="#505050"
     bordercolor="#eeeeee"
     borderopacity="1"
     inkscape:showpageshadow="0"
     inkscape:pageopacity="0"
     inkscape:pagecheckerboard="0"
     inkscape:deskcolor="#d1d1d1"
     inkscape:zoom="0.50375"
     inkscape:cx="416.87345"
     inkscape:cy="332.5062"
     inkscape:window-width="1920"
     inkscape:window-height="1027"
     inkscape:window-x="1672"
     inkscape:window-y="-8"
     inkscape:window-maximized="1"
     inkscape:current-layer="svg6993" />
  <defs
     id="defs6990" />
  <g
     id="layer2">
    <path
       id="rect1"
       style="fill:#000000;fill-opacity:0.245658;stroke-width:0.2"
       d="M 0,0 H 26.458333 V 26.458333 H 0 Z" />
    <path
       id="path1"
       style="fill:#000000;fill-opacity:0.245658;stroke-width:0.2"
       d="M 26.458333,26.458333 H 52.916666 V 52.916666 H 26.458333 Z" />
  </g>
  <g
     id="layer2-8"
     transform="translate(0,52.916666)">
    <path
       id="rect1-5"
       style="fill:#000000;fill-opacity:0.245658;stroke-width:0.2"
       d="M 0,0 H 26.458333 V 26.458333 H 0 Z" />
    <path
       id="path1-1"
       style="fill:#000000;fill-opacity:0.245658;stroke-width:0.2"
       d="M 26.458333,26.458333 H 52.916666 V 52.916666 H 26.458333 Z" />
  </g>
  <g
     id="layer2-6"
     transform="translate(0,105.83333)">
    <path
       id="rect1-0"
       style="fill:#000000;fill-opacity:0.245658;stroke-width:0.2"
       d="M 0,0 H 26.458333 V 26.458333 H 0 Z" />
    <path
       id="path1-8"
       style="fill:#000000;fill-opacity:0.245658;stroke-width:0.2"
       d="M 26.458333,26.458333 H 52.916666 V 52.916666 H 26.458333 Z" />
  </g>
  <g
     id="g3"
     transform="translate(52.916666)">
    <path
       id="path2"
       style="fill:#000000;fill-opacity:0.245658;stroke-width:0.2"
       d="M 0,0 H 26.458333 V 26.458333 H 0 Z" />
    <path
       id="path3"
       style="fill:#000000;fill-opacity:0.245658;stroke-width:0.2"
       d="M 26.458333,26.458333 H 52.916666 V 52.916666 H 26.458333 Z" />
  </g>
  <g
     id="g5"
     transform="translate(52.916666,52.916666)">
    <path
       id="path4"
       style="fill:#000000;fill-opacity:0.245658;stroke-width:0.2"
       d="M 0,0 H 26.458333 V 26.458333 H 0 Z" />
    <path
       id="path5"
       style="fill:#000000;fill-opacity:0.245658;stroke-width:0.2"
       d="M 26.458333,26.458333 H 52.916666 V 52.916666 H 26.458333 Z" />
  </g>
  <g
     id="g7"
     transform="translate(52.916666,105.83333)">
    <path
       id="path6"
       style="fill:#000000;fill-opacity:0.245658;stroke-width:0.2"
       d="M 0,0 H 26.458333 V 26.458333 H 0 Z" />
    <path
       id="path7"
       style="fill:#000000;fill-opacity:0.245658;stroke-width:0.2"
       d="M 26.458333,26.458333 H 52.916666 V 52.916666 H 26.458333 Z" />
  </g>
  <g
     id="g9"
     transform="translate(105.83333)">
    <path
       id="path8"
       style="fill:#000000;fill-opacity:0.245658;stroke-width:0.2"
       d="M 0,0 H 26.458333 V 26.458333 H 0 Z" />
    <path
       id="path9"
       style="fill:#000000;fill-opacity:0.245658;stroke-width:0.2"
       d="M 26.458333,26.458333 H 52.916666 V 52.916666 H 26.458333 Z" />
  </g>
  <g
     id="g11"
     transform="translate(105.83333,52.916666)">
    <path
       id="path10"
       style="fill:#000000;fill-opacity:0.245658;stroke-width:0.2"
       d="M 0,0 H 26.458333 V 26.458333 H 0 Z" />
    <path
       id="path11"
       style="fill:#000000;fill-opacity:0.245658;stroke-width:0.2"
       d="M 26.458333,26.458333 H 52.916666 V 52.916666 H 26.458333 Z" />
  </g>
  <g
     id="g13"
     transform="translate(105.83333,105.83333)">
    <path
       id="path12"
       style="fill:#000000;fill-opacity:0.245658;stroke-width:0.2"
       d="M 0,0 H 26.458333 V 26.458333 H 0 Z" />
    <path
       id="path13"
       style="fill:#000000;fill-opacity:0.245658;stroke-width:0.2"
       d="M 26.458333,26.458333 H 52.916666 V 52.916666 H 26.458333 Z" />
  </g>
  <g
     id="g15"
     transform="translate(158.75)">
    <path
       id="path14"
       style="fill:#000000;fill-opacity:0.245658;stroke-width:0.2"
       d="M 0,0 H 26.458333 V 26.458333 H 0 Z" />
    <path
       id="path15"
       style="fill:#000000;fill-opacity:0.245658;stroke-width:0.2"
       d="M 26.458333,26.458333 H 52.916666 V 52.916666 H 26.458333 Z" />
  </g>
  <g
     id="g17"
     transform="translate(158.75,52.916666)">
    <path
       id="path16"
       style="fill:#000000;fill-opacity:0.245658;stroke-width:0.2"
       d="M 0,0 H 26.458333 V 26.458333 H 0 Z" />
    <path
       id="path17"
       style="fill:#000000;fill-opacity:0.245658;stroke-width:0.2"
       d="M 26.458333,26.458333 H 52.916666 V 52.916666 H 26.458333 Z" />
  </g>
  <g
     id="g19"
     transform="translate(158.75,105.83333)">
    <path
       id="path18"
       style="fill:#000000;fill-opacity:0.245658;stroke-width:0.2"
       d="M 0,0 H 26.458333 V 26.458333 H 0 Z" />
    <path
       id="path19"
       style="fill:#000000;fill-opacity:0.245658;stroke-width:0.2"
       d="M 26.458333,26.458333 H 52.916666 V 52.916666 H 26.458333 Z" />
  </g>
  <g
     id="g21"
     transform="translate(211.66666)">
    <path
       id="path20"
       style="fill:#000000;fill-opacity:0.245658;stroke-width:0.2"
       d="M 0,0 H 26.458333 V 26.458333 H 0 Z" />
    <path
       id="path21"
       style="fill:#000000;fill-opacity:0.245658;stroke-width:0.2"
       d="M 26.458333,26.458333 H 52.916666 V 52.916666 H 26.458333 Z" />
  </g>
  <g
     id="g23"
     transform="translate(211.66666,52.916666)">
    <path
       id="path22"
       style="fill:#000000;fill-opacity:0.245658;stroke-width:0.2"
       d="M 0,0 H 26.458333 V 26.458333 H 0 Z" />
    <path
       id="path23"
       style="fill:#000000;fill-opacity:0.245658;stroke-width:0.2"
       d="M 26.458333,26.458333 H 52.916666 V 52.916666 H 26.458333 Z" />
  </g>
  <g
     id="g25"
     transform="translate(211.66666,105.83333)">
    <path
       id="path24"
       style="fill:#000000;fill-opacity:0.245658;stroke-width:0.2"
       d="M 0,0 H 26.458333 V 26.458333 H 0 Z" />
    <path
       id="path25"
       style="fill:#000000;fill-opacity:0.245658;stroke-width:0.2"
       d="M 26.458333,26.458333 H 52.916666 V 52.916666 H 26.458333 Z" />
  </g>
  <g
     id="g27"
     transform="translate(264.58333)">
    <path
       id="path26"
       style="fill:#000000;fill-opacity:0.245658;stroke-width:0.2"
       d="M 0,0 H 26.458333 V 26.458333 H 0 Z" />
    <path
       id="path27"
       style="fill:#000000;fill-opacity:0.245658;stroke-width:0.2"
       d="M 26.458333,26.458333 H 52.916666 V 52.916666 H 26.458333 Z" />
  </g>
  <g
     id="g29"
     transform="translate(264.58333,52.916666)">
    <path
       id="path28"
       style="fill:#000000;fill-opacity:0.245658;stroke-width:0.2"
       d="M 0,0 H 26.458333 V 26.458333 H 0 Z" />
    <path
       id="path29"
       style="fill:#000000;fill-opacity:0.245658;stroke-width:0.2"
       d="M 26.458333,26.458333 H 52.916666 V 52.916666 H 26.458333 Z" />
  </g>
  <g
     id="g31"
     transform="translate(264.58333,105.83333)">
    <path
       id="path30"
       style="fill:#000000;fill-opacity:0.245658;stroke-width:0.2"
       d="M 0,0 H 26.458333 V 26.458333 H 0 Z" />
    <path
       id="path31"
       style="fill:#000000;fill-opacity:0.245658;stroke-width:0.2"
       d="M 26.458333,26.458333 H 52.916666 V 52.916666 H 26.458333 Z" />
  </g>
</svg>
